<svg width="30" height="30" viewBox="0 0 30 30" fill="none" xmlns="http://www.w3.org/2000/svg">
<path d="M15 28.4375C7.5875 28.4375 1.5625 22.4125 1.5625 15C1.5625 7.5875 7.5875 1.5625 15 1.5625C22.4125 1.5625 28.4375 7.5875 28.4375 15C28.4375 22.4125 22.4125 28.4375 15 28.4375ZM15 3.4375C8.625 3.4375 3.4375 8.625 3.4375 15C3.4375 21.375 8.625 26.5625 15 26.5625C21.375 26.5625 26.5625 21.375 26.5625 15C26.5625 8.625 21.375 3.4375 15 3.4375Z" fill="#757575"/>
<path d="M16.5749 20.3502C16.3374 20.3502 16.0999 20.2627 15.9124 20.0752L11.4999 15.6627C11.1374 15.3002 11.1374 14.7002 11.4999 14.3377L15.9124 9.9252C16.2749 9.5627 16.8749 9.5627 17.2374 9.9252C17.5999 10.2877 17.5999 10.8877 17.2374 11.2502L13.4874 15.0002L17.2374 18.7502C17.5999 19.1127 17.5999 19.7127 17.2374 20.0752C17.0624 20.2627 16.8249 20.3502 16.5749 20.3502Z" fill="#757575"/>
</svg>
