<svg width="23" height="23" viewBox="0 0 23 23" fill="none" xmlns="http://www.w3.org/2000/svg">
<g clip-path="url(#clip0_2129_3625)">
<path d="M4.51723 1.29775C4.63517 1.29775 4.75332 1.38875 4.75332 1.51024L7.0549 15.528C7.17284 16.2258 7.76313 16.7721 8.4712 16.7721H19.7135C20.3922 16.7721 20.9823 16.2563 21.1298 15.5586L22.8707 6.06164C22.9592 5.63687 22.8413 5.18184 22.5756 4.84808C22.3103 4.5141 21.8972 4.33209 21.4547 4.33209H9.44513C9.12054 4.33209 8.85503 4.60512 8.85503 4.93887C8.85503 5.27264 9.12055 5.54565 9.44513 5.54565H21.4547C21.5726 5.54565 21.6317 5.60639 21.6613 5.63666C21.6907 5.66692 21.7204 5.75793 21.7204 5.84915L21.3367 7.97301H10.0354C9.71078 7.97301 9.44528 8.24603 9.44528 8.57978C9.44528 8.91354 9.7108 9.18656 10.0354 9.18656H21.1007L20.6581 11.6142H10.6256C10.301 11.6142 10.0355 11.8872 10.0355 12.2209C10.0355 12.5547 10.301 12.8277 10.6256 12.8277H20.4221L19.9499 15.3461C19.9205 15.4673 19.832 15.5586 19.7138 15.5586L8.47149 15.5583C8.35355 15.5583 8.2354 15.4673 8.2354 15.3458L5.93382 1.32804C5.81588 0.630241 5.22559 0.0839844 4.51752 0.0839844L0.593026 0.084196C0.268434 0.084196 0.00292969 0.357221 0.00292969 0.690973C0.00292969 1.02473 0.26845 1.29775 0.593026 1.29775L4.51723 1.29775Z" fill="#ffffff"/>
<path d="M9.91691 22.9005C11.0677 22.9005 12.012 21.9295 12.012 20.7462C12.012 19.5628 11.0677 18.5918 9.91691 18.5918C8.76612 18.5918 7.82178 19.5628 7.82178 20.7462C7.82178 21.9295 8.76612 22.9005 9.91691 22.9005ZM9.91691 19.8056C10.4185 19.8056 10.8316 20.2304 10.8316 20.7462C10.8316 21.2619 10.4185 21.6867 9.91691 21.6867C9.41531 21.6867 9.00223 21.2619 9.00223 20.7462C9.00223 20.2304 9.41533 19.8056 9.91691 19.8056Z" fill="#ffffff"/>
<path d="M19.7135 20.7471C19.7135 19.5638 18.7691 18.5928 17.6183 18.5928C16.4675 18.5928 15.5232 19.5638 15.5232 20.7471C15.5232 21.9305 16.4675 22.9015 17.6183 22.9015C18.7693 22.9015 19.7135 21.9305 19.7135 20.7471ZM16.6742 20.7471C16.6742 20.2314 17.0873 19.8066 17.5889 19.8066C18.0905 19.8066 18.5036 20.2314 18.5036 20.7471C18.5036 21.2629 18.0905 21.6877 17.5889 21.6877C17.0873 21.6877 16.6742 21.2629 16.6742 20.7471Z" fill="#ffffff"/>
</g>
<defs>
<clipPath id="clip0_2129_3625">
<rect width="23" height="23" fill="white"/>
</clipPath>
</defs>
</svg>
