<svg width="28" height="27" viewBox="0 0 28 27" fill="none" xmlns="http://www.w3.org/2000/svg">
<path d="M1.73052 0.830156C1.63671 0.426704 1.23361 0.175682 0.830156 0.269484C0.426704 0.363286 0.175682 0.766391 0.269484 1.16984L1.73052 0.830156ZM6.76106 20.221L7.23271 19.6378L6.76106 20.221ZM3.44349 11.7273L4.17553 11.5641L3.44349 11.7273ZM6.54357 20.0365L7.04182 19.476L6.54357 20.0365ZM26.4095 12.3653L27.1416 12.5285L26.4095 12.3653ZM23.8353 19.6647L23.2908 19.149L23.8353 19.6647ZM22.8085 20.5355L23.2274 21.1577L22.8085 20.5355ZM26.3163 7.18277L26.8506 6.65636L26.3163 7.18277ZM26.7536 7.77904L27.4152 7.42579L26.7536 7.77904ZM16.7155 11.95C16.3013 11.95 15.9655 12.2858 15.9655 12.7C15.9655 13.1142 16.3013 13.45 16.7155 13.45V11.95ZM20.3421 15.85C19.9279 15.85 19.5921 16.1858 19.5921 16.6C19.5921 17.0142 19.9279 17.35 20.3421 17.35V15.85ZM2.27262 7.22368H22.0888V5.72368H2.27262V7.22368ZM15.6077 20.7763H14.9976V22.2763H15.6077V20.7763ZM4.17553 11.5641L3.00466 6.31053L1.54058 6.63683L2.71145 11.8904L4.17553 11.5641ZM3.00314 6.30384L1.73052 0.830156L0.269484 1.16984L1.54211 6.64353L3.00314 6.30384ZM14.9976 20.7763C12.771 20.7763 11.1702 20.775 9.92186 20.6189C8.6963 20.4658 7.89256 20.1716 7.23271 19.6378L6.2894 20.8041C7.2434 21.5757 8.35037 21.9342 9.73584 22.1074C11.0985 22.2777 12.8091 22.2763 14.9976 22.2763V20.7763ZM2.71145 11.8904C3.22231 14.1826 3.61763 15.9612 4.08573 17.3362C4.55874 18.7257 5.13143 19.7848 6.04533 20.5971L7.04182 19.476C6.39917 18.9048 5.93633 18.1178 5.5057 16.8528C5.07014 15.5734 4.69369 13.8891 4.17553 11.5641L2.71145 11.8904ZM7.23271 19.6378C7.16798 19.5855 7.10434 19.5315 7.04182 19.476L6.04533 20.5971C6.12516 20.6681 6.20654 20.7371 6.2894 20.8041L7.23271 19.6378ZM15.6077 22.2763C17.5011 22.2763 18.9811 22.2773 20.1697 22.1481C21.3763 22.0169 22.3541 21.7457 23.2274 21.1577L22.3897 19.9134C21.7915 20.3162 21.0787 20.5404 20.0076 20.6569C18.9186 20.7753 17.5339 20.7763 15.6077 20.7763V22.2763ZM23.2908 19.149C23.0161 19.439 22.7138 19.6952 22.3897 19.9134L23.2274 21.1577C23.6443 20.877 24.0306 20.5492 24.3798 20.1805L23.2908 19.149ZM22.0888 7.22368C23.286 7.22368 24.1099 7.22521 24.7252 7.30594C25.3228 7.38436 25.5999 7.52424 25.7821 7.70917L26.8506 6.65636C26.3341 6.13221 25.6737 5.91755 24.9203 5.81869C24.1847 5.72216 23.2442 5.72368 22.0888 5.72368V7.22368ZM27.1416 12.5285C27.4118 11.316 27.6295 10.3443 27.7124 9.56485C27.7963 8.7757 27.7575 8.06685 27.4152 7.42579L26.092 8.13229C26.2281 8.38718 26.2915 8.74135 26.2208 9.4063C26.1491 10.0809 25.9556 10.9544 25.6775 12.2022L27.1416 12.5285ZM25.7821 7.70917C25.9026 7.8315 26.0074 7.97383 26.092 8.13229L27.4152 7.42579C27.2641 7.14286 27.0742 6.88338 26.8506 6.65636L25.7821 7.70917ZM25.1776 15.85H20.3421V17.35H25.1776V15.85ZM26.3349 11.95L16.7155 11.95V13.45L26.3349 13.45V11.95ZM25.6775 12.2022C25.6523 12.3153 25.6274 12.4268 25.6029 12.5367L27.0669 12.8633C27.0915 12.7532 27.1164 12.6416 27.1416 12.5285L25.6775 12.2022ZM25.6029 12.5367C25.2437 14.1472 24.9616 15.3893 24.6653 16.3864L26.1032 16.8136C26.4172 15.7568 26.7107 14.4603 27.0669 12.8633L25.6029 12.5367ZM24.6653 16.3864C24.2657 17.7313 23.8634 18.5444 23.2908 19.149L24.3798 20.1805C25.1912 19.3239 25.6776 18.2459 26.1032 16.8136L24.6653 16.3864ZM25.1776 17.35H25.3843V15.85H25.1776V17.35Z" fill="#2D264B"/>
<path d="M12.4532 25.6317C12.4532 26.3875 11.8835 27.0001 11.1807 27.0001C10.4779 27.0001 9.9082 26.3875 9.9082 25.6317C9.9082 24.876 10.4779 24.2633 11.1807 24.2633C11.8835 24.2633 12.4532 24.876 12.4532 25.6317Z" fill="#2D264B"/>
<path d="M20.0882 25.6317C20.0882 26.3875 19.5185 27.0001 18.8157 27.0001C18.1129 27.0001 17.5432 26.3875 17.5432 25.6317C17.5432 24.876 18.1129 24.2633 18.8157 24.2633C19.5185 24.2633 20.0882 24.876 20.0882 25.6317Z" fill="#2D264B"/>
</svg>
