<svg width="21" height="21" viewBox="0 0 21 21" fill="none" xmlns="http://www.w3.org/2000/svg">
<path d="M6.19411 18.7197H14.8084C17.077 18.7197 17.9812 17.3305 18.088 15.6373L18.5154 8.84781C18.6305 7.07236 17.2167 5.56815 15.433 5.56815C14.9316 5.56815 14.4713 5.28046 14.2412 4.8366L13.6494 3.64474C13.2713 2.89675 12.2849 2.28027 11.4465 2.28027H9.56419C8.71756 2.28027 7.73119 2.89675 7.35309 3.64474L6.76127 4.8366C6.53112 5.28046 6.07082 5.56815 5.56941 5.56815C3.78574 5.56815 2.37195 7.07236 2.48703 8.84781L2.91445 15.6373C3.01309 17.3305 3.92548 18.7197 6.19411 18.7197Z" stroke="#CF5B50" stroke-width="1.5" stroke-linecap="round" stroke-linejoin="round"/>
<path d="M9.26807 7.21191H11.734" stroke="#CF5B50" stroke-width="1.5" stroke-linecap="round" stroke-linejoin="round"/>
<path d="M10.5005 15.4322C11.9718 15.4322 13.1719 14.2321 13.1719 12.7608C13.1719 11.2894 11.9718 10.0894 10.5005 10.0894C9.02918 10.0894 7.8291 11.2894 7.8291 12.7608C7.8291 14.2321 9.02918 15.4322 10.5005 15.4322Z" stroke="#CF5B50" stroke-width="1.5" stroke-linecap="round" stroke-linejoin="round"/>
</svg>
