<svg width="29" height="30" viewBox="0 0 29 30" fill="none" xmlns="http://www.w3.org/2000/svg">
<g clip-path="url(#clip0_709_2240)">
<path d="M26.1826 0.0205078H17.544C16.0015 0.0205078 14.7463 1.33324 14.7463 2.9464V11.9803C14.7463 13.5934 16.0015 14.9061 17.544 14.9061H26.1826C27.725 14.9061 28.9802 13.5934 28.9802 11.9803V2.9464C28.9802 1.33324 27.725 0.0205078 26.1826 0.0205078ZM28.2808 11.9804C28.2808 13.1905 27.3396 14.1747 26.1826 14.1747H17.544C16.3869 14.1747 15.4458 13.1905 15.4458 11.9804V2.94653C15.4458 1.73643 16.3869 0.752169 17.544 0.752169H26.1826C27.3396 0.752169 28.2808 1.73643 28.2808 2.94653V11.9804Z" fill="#50C4CF"/>
<path d="M11.7409 0.0205078H3.10236C1.55989 0.0205078 0.304688 1.33324 0.304688 2.9464V11.9803C0.304688 13.5934 1.55989 14.9061 3.10236 14.9061H11.7409C13.2834 14.9061 14.5386 13.5934 14.5386 11.9803L14.5383 2.9464C14.5383 1.33324 13.2834 0.0205078 11.7409 0.0205078H11.7409ZM13.8391 11.9804C13.8391 13.1905 12.898 14.1747 11.7409 14.1747H3.10236C1.94529 14.1747 1.00416 13.1905 1.00416 11.9804V2.94653C1.00416 1.73643 1.94529 0.752169 3.10236 0.752169H11.7409C12.898 0.752169 13.8391 1.73643 13.8391 2.94653V11.9804Z" fill="#50C4CF"/>
<path d="M11.7409 15.125H3.10236C1.55989 15.125 0.304688 16.4377 0.304688 18.0509V27.0847C0.304688 28.6979 1.55989 30.0106 3.10236 30.0106H11.7409C13.2834 30.0106 14.5386 28.6979 14.5386 27.0847L14.5383 18.0509C14.5383 16.4377 13.2834 15.1253 11.7409 15.1253L11.7409 15.125ZM13.8391 27.0842C13.8391 28.2943 12.898 29.2786 11.7409 29.2786H3.10236C1.94529 29.2786 1.00416 28.2943 1.00416 27.0842V18.0504C1.00416 16.8403 1.94529 15.856 3.10236 15.856H11.7409C12.898 15.856 13.8391 16.8403 13.8391 18.0504V27.0842Z" fill="#50C4CF"/>
<path d="M26.1826 15.125H17.544C16.0015 15.125 14.7463 16.4377 14.7463 18.0509L14.7466 27.0847C14.7466 28.6979 16.0018 30.0106 17.5442 30.0106H26.1828C27.7253 30.0106 28.9805 28.6979 28.9805 27.0847V18.0509C28.9805 16.4377 27.7253 15.1253 26.1828 15.1253L26.1826 15.125ZM28.2808 27.0842C28.2808 28.2943 27.3396 29.2786 26.1826 29.2786H17.544C16.3869 29.2786 15.4458 28.2943 15.4458 27.0842V18.0504C15.4458 16.8403 16.3869 15.856 17.544 15.856H26.1826C27.3396 15.856 28.2808 16.8403 28.2808 18.0504V27.0842Z" fill="#50C4CF"/>
</g>
<defs>
<clipPath id="clip0_709_2240">
<rect width="29" height="30" fill="white"/>
</clipPath>
</defs>
</svg>
