<svg width="31" height="30" viewBox="0 0 31 30" fill="none" xmlns="http://www.w3.org/2000/svg">
<path fill-rule="evenodd" clip-rule="evenodd" d="M26.0275 4.11405C20.0027 -1.58398 10.4726 -1.33193 4.75877 4.67615C-0.955077 10.6842 -0.702332 20.1879 5.32244 25.886C11.3472 31.584 20.8773 31.3319 26.5912 25.3239C32.305 19.3158 32.0523 9.81207 26.0275 4.11405ZM24.6474 5.56531C29.8688 10.5032 30.0875 18.7397 25.1359 23.9476C20.1843 29.1545 11.9249 29.3726 6.70251 24.4347C1.48111 19.4968 1.26246 11.2603 6.21407 6.05239C11.1657 0.845458 19.425 0.62742 24.6474 5.56531ZM15.6379 13.5857L10.5428 8.76788C10.1416 8.38881 9.50577 8.40481 9.12565 8.80589C8.74453 9.20596 8.76158 9.84007 9.16276 10.2201L14.2568 15.037L9.42554 20.1179C9.04542 20.518 9.06146 21.1521 9.46365 21.5312C9.86483 21.9112 10.5007 21.8942 10.8818 21.4942L15.7121 16.4143L20.8071 21.2321C21.2083 21.6112 21.8442 21.5952 22.2243 21.1941C22.6054 20.794 22.5884 20.1599 22.1872 19.7799L17.0931 14.963L21.9244 9.88208C22.3045 9.48201 22.2885 8.8479 21.8863 8.46883C21.4851 8.08876 20.8492 8.10576 20.4681 8.50583L15.6379 13.5857Z" fill="#CF5B50"/>
</svg>
