<svg width="8" height="8" viewBox="0 0 8 8" fill="none" xmlns="http://www.w3.org/2000/svg">
<path d="M7.92115 7.5426C7.94614 7.56739 7.96597 7.59687 7.9795 7.62936C7.99303 7.66184 8 7.69668 8 7.73188C8 7.76707 7.99303 7.80191 7.9795 7.8344C7.96597 7.86688 7.94614 7.89636 7.92115 7.92115C7.89637 7.94613 7.86689 7.96596 7.8344 7.9795C7.80192 7.99303 7.76708 8 7.73189 8C7.6967 8 7.66186 7.99303 7.62938 7.9795C7.59689 7.96596 7.56741 7.94613 7.54263 7.92115L4 4.37565L0.457369 7.92115C0.432589 7.94613 0.403107 7.96596 0.370623 7.9795C0.33814 7.99303 0.303299 8 0.268109 8C0.23292 8 0.198078 7.99303 0.165595 7.9795C0.133112 7.96596 0.10363 7.94613 0.0788491 7.92115C0.0538645 7.89636 0.0340337 7.86688 0.0205006 7.8344C0.0069675 7.80191 0 7.76707 0 7.73188C0 7.69668 0.0069675 7.66184 0.0205006 7.62936C0.0340337 7.59687 0.0538645 7.56739 0.0788491 7.5426L3.62415 3.99977L0.0788491 0.45694C0.0286541 0.406743 0.000454949 0.33866 0.000454949 0.26767C0.00045495 0.196679 0.0286541 0.128596 0.0788491 0.0783986C0.129044 0.0282008 0.197123 5.2892e-10 0.268109 0C0.339096 -5.28919e-10 0.407175 0.0282008 0.457369 0.0783986L4 3.6239L7.54263 0.0783986C7.59283 0.0282008 7.6609 0 7.73189 0C7.80288 0 7.87096 0.0282008 7.92115 0.0783986C7.97135 0.128596 7.99954 0.196679 7.99954 0.26767C7.99954 0.33866 7.97135 0.406743 7.92115 0.45694L4.37585 3.99977L7.92115 7.5426Z" fill="black"/>
</svg>
