<svg width="26" height="27" viewBox="0 0 26 27" fill="none" xmlns="http://www.w3.org/2000/svg">
<path d="M23.2262 9.98828H14.3406C14.0913 9.98828 13.8894 10.1913 13.8894 10.4395V22.2043C13.8894 22.4537 14.0924 22.6556 14.3406 22.6556H23.2262C23.4755 22.6556 23.6774 22.4525 23.6774 22.2043L23.6776 10.4395C23.6785 10.1913 23.4755 9.98828 23.2262 9.98828ZM22.7749 21.7531H14.7931V10.892H22.7749V21.7531Z" fill="#5085CF"/>
<path d="M23.8015 7.50669H20.2397V3.57379C20.2397 1.63785 18.6647 0.0639648 16.731 0.0639648H3.5108C1.57486 0.0639648 0.000976562 1.63896 0.000976562 3.57379V23.4844C0.000976562 25.4192 1.57597 26.9931 3.5108 26.9931H13.7323C13.7436 26.9931 13.7536 26.9999 13.765 26.9999H23.8012C24.6349 26.9999 25.3141 26.3207 25.3141 25.4881L25.3143 9.02012C25.3143 8.18509 24.6351 7.50706 23.8014 7.50706L23.8015 7.50669ZM0.903696 23.4854V3.57379C0.903696 2.13645 2.07245 0.966588 3.5109 0.966588H16.7302C18.1663 0.966588 19.3362 2.13534 19.3362 3.57379V7.50553H18.2927V3.53429C18.2927 3.28498 18.0896 3.08307 17.8415 3.08307H2.39853C2.14922 3.08307 1.94731 3.28611 1.94731 3.53429V22.3966C1.94731 22.646 2.15035 22.8479 2.39853 22.8479H12.2521V25.489C12.2521 25.7034 12.2995 25.9053 12.3807 26.0904H3.51062C2.07217 26.0904 0.903416 24.9217 0.903416 23.4855L0.903696 23.4854ZM13.7642 7.50669C12.9316 7.50669 12.2524 8.18588 12.2524 9.01956V21.9453L2.851 21.9455V3.98685H17.3903V7.50688L13.7642 7.50669ZM24.4112 25.489C24.4112 25.8252 24.1381 26.0972 23.8018 26.0972H14.3395C14.3281 26.0961 14.3181 26.0904 14.3068 26.0904H13.7315C13.4112 26.0723 13.1562 25.813 13.1562 25.489L13.156 9.01958C13.156 8.68338 13.428 8.41025 13.7642 8.41025H19.782C19.7843 8.41025 19.7854 8.41139 19.7877 8.41139C19.79 8.41139 19.7911 8.41025 19.7934 8.41025H23.8018C24.138 8.41025 24.4111 8.68336 24.4111 9.01958L24.4112 25.489Z" fill="#5085CF"/>
<path d="M10.8066 24.476C10.8066 24.8554 10.4989 25.1631 10.1195 25.1631C9.74005 25.1631 9.43237 24.8554 9.43237 24.476C9.43237 24.0965 9.74005 23.7891 10.1195 23.7891C10.4989 23.7891 10.8066 24.0965 10.8066 24.476Z" fill="#5085CF"/>
<path d="M19.4699 24.476C19.4699 24.8554 19.1623 25.1631 18.7828 25.1631C18.4034 25.1631 18.0957 24.8554 18.0957 24.476C18.0957 24.0965 18.4034 23.7891 18.7828 23.7891C19.1623 23.7891 19.4699 24.0965 19.4699 24.476Z" fill="#5085CF"/>
<path d="M9.47636 2.47714H10.7637C11.013 2.47714 11.2149 2.2741 11.2149 2.02592C11.2149 1.77774 11.0119 1.57471 10.7637 1.57471H9.47636C9.22705 1.57471 9.02515 1.77774 9.02515 2.02592C9.02515 2.2741 9.22705 2.47714 9.47636 2.47714Z" fill="#5085CF"/>
<path d="M18.4305 9.68954H19.1548C19.4041 9.68954 19.606 9.4865 19.606 9.23832C19.606 8.99015 19.4029 8.78711 19.1548 8.78711H18.4305C18.1812 8.78711 17.9792 8.99015 17.9792 9.23832C17.9791 9.4865 18.181 9.68954 18.4305 9.68954Z" fill="#5085CF"/>
</svg>
