<svg width="27" height="34" viewBox="0 0 27 34" fill="none" xmlns="http://www.w3.org/2000/svg">
<path d="M25.7743 11.6789C25.3359 11.2824 24.8872 10.8752 24.7828 10.4838C24.6733 10.0663 24.8611 9.47129 25.0489 8.89213C25.2942 8.13035 25.5446 7.34758 25.2003 6.75256C24.8506 6.14733 24.0366 5.97491 23.2485 5.80273C22.6639 5.67739 22.0533 5.54693 21.7612 5.24967C21.4637 4.95217 21.3332 4.3469 21.2081 3.7573C21.0359 2.9694 20.8638 2.1552 20.2583 1.80547C19.6633 1.46115 18.8805 1.71159 18.1187 1.95691C17.5395 2.13955 16.9445 2.33268 16.527 2.22295C16.1356 2.11858 15.7286 1.66453 15.3319 1.23144C14.7789 0.626217 14.2101 0 13.4952 0C12.7802 0 12.2166 0.626217 11.6687 1.23144C11.2722 1.66989 10.865 2.11858 10.4736 2.22295C10.0561 2.33244 9.46109 2.14468 8.88193 1.95691C8.12016 1.71695 7.33738 1.46115 6.74236 1.80547C6.13713 2.15516 5.96472 2.96917 5.79254 3.7573C5.6672 4.34182 5.53673 4.95243 5.23947 5.2446C4.94197 5.5421 4.33671 5.67256 3.75218 5.79766C2.96428 5.96983 2.15007 6.14199 1.80035 6.74749C1.45602 7.34249 1.70646 8.12528 1.95178 8.88706C2.13442 9.46622 2.32755 10.0612 2.21782 10.4787C2.11345 10.8701 1.6594 11.2771 1.22631 11.6738C0.621089 12.2218 0 12.7854 0 13.5003C0 14.2153 0.626218 14.7789 1.22631 15.3268C1.66476 15.7233 2.11345 16.1305 2.21782 16.5219C2.32732 16.9394 2.13955 17.5344 1.95178 18.1136C1.71182 18.8753 1.45602 19.6581 1.80035 20.2531C2.15003 20.8584 2.96404 21.0308 3.75218 21.203C4.34182 21.3283 4.9473 21.4588 5.24454 21.756C5.43767 21.9492 5.55765 22.2779 5.6569 22.6432L2.93279 29.5578C2.85964 29.7509 2.89109 29.9648 3.02155 30.1214C3.15202 30.2779 3.35563 30.3511 3.55901 30.3145L7.09708 29.6571L9.27321 33.1223C9.37758 33.2893 9.55511 33.3883 9.748 33.3883H9.78457C9.99331 33.3727 10.176 33.2527 10.2594 33.0647L13.1035 26.9332C13.2339 26.9749 13.3644 27.0063 13.5 27.0063C13.6409 27.0063 13.7714 26.9751 13.8965 26.9332L16.7406 33.0647C16.8293 33.2525 17.012 33.3778 17.2154 33.3883H17.2519C17.4451 33.3883 17.6277 33.2891 17.7267 33.1223L19.9029 29.6571L23.4409 30.3145C23.6445 30.3511 23.8479 30.2779 23.9784 30.1214C24.1089 29.9648 24.1454 29.7456 24.0672 29.5578L21.343 22.6432C21.4423 22.2779 21.5623 21.9491 21.7554 21.756C22.0529 21.4585 22.6582 21.3281 23.2427 21.203C24.0306 21.0308 24.8448 20.8586 25.1945 20.2531C25.5388 19.6581 25.2884 18.8753 25.0431 18.1136C24.8604 17.5344 24.6673 16.9394 24.777 16.5219C24.8814 16.1305 25.3355 15.7235 25.7686 15.3268C26.3738 14.7788 27 14.2153 27 13.5003C27.0005 12.7905 26.3743 12.2269 25.7741 11.679L25.7743 11.6789ZM9.79027 32.8552C9.77979 32.8708 9.7693 32.8813 9.74857 32.8864C9.73296 32.8864 9.71199 32.8813 9.70151 32.8603L7.4315 29.2491C7.37419 29.1603 7.26982 29.1135 7.16546 29.1342L3.45521 29.8231L3.3979 29.7553L5.84545 23.5349C6.00201 24.2289 6.20026 24.8968 6.73259 25.2048C7.3276 25.5491 8.11039 25.2987 8.87217 25.0534C9.45132 24.8707 10.0464 24.6776 10.4638 24.7873C10.8552 24.8917 11.2622 25.3458 11.659 25.7789C11.9669 26.1232 12.2852 26.4678 12.6295 26.7026L9.79027 32.8552ZM23.5307 29.8234L19.8204 29.1345C19.7161 29.1189 19.6117 29.1606 19.5544 29.2493L17.2844 32.8606C17.2739 32.8762 17.2583 32.8867 17.2373 32.8867C17.2163 32.8867 17.2007 32.8762 17.1956 32.8554L14.3464 26.7084C14.6908 26.4684 15.0092 26.1238 15.317 25.7847C15.7135 25.3462 16.1207 24.8975 16.5121 24.7932C16.9296 24.6837 17.5246 24.8714 18.1037 25.0592C18.8655 25.2992 19.6483 25.555 20.2433 25.2106C20.7757 24.9026 20.9739 24.2347 21.1305 23.5407L23.578 29.7611L23.5307 29.8234ZM25.4303 14.9558C24.9397 15.3993 24.4283 15.8639 24.2874 16.4013C24.136 16.9649 24.3501 17.6328 24.5588 18.28C24.7675 18.9323 24.9814 19.6106 24.7519 20.0072C24.5171 20.4142 23.8177 20.5656 23.1393 20.7117C22.4819 20.8526 21.7981 21.0038 21.3962 21.4057C20.9944 21.8076 20.8483 22.4911 20.7022 23.1488C20.5561 23.8272 20.4047 24.5266 19.9977 24.7614C19.6012 24.9911 18.9279 24.777 18.2705 24.5682C17.6233 24.3595 16.9503 24.1456 16.3919 24.2968C15.8544 24.4378 15.3952 24.9492 14.9463 25.4398C14.4766 25.9616 13.986 26.4991 13.5008 26.4991C13.0155 26.4991 12.5249 25.9616 12.0552 25.4398C11.6116 24.9491 11.1471 24.4378 10.6097 24.2968C10.4792 24.2603 10.3436 24.2446 10.1973 24.2446C9.73277 24.2446 9.22143 24.4063 8.72564 24.5682C8.0733 24.777 7.39496 24.9908 6.99841 24.7614C6.59142 24.5265 6.43999 23.8272 6.29395 23.1488C6.153 22.4914 6.00181 21.8076 5.59992 21.4057C5.19803 21.0038 4.51454 20.8577 3.85683 20.7117C3.17843 20.5656 2.47903 20.4142 2.24423 20.0072C2.01452 19.6107 2.22862 18.9374 2.43736 18.28C2.6461 17.6328 2.85997 16.9597 2.70877 16.4013C2.5627 15.8639 2.05643 15.4047 1.56584 14.9558C1.04399 14.4861 0.506514 13.9954 0.506514 13.5102C0.506514 13.0249 1.04397 12.5343 1.56584 12.0647C2.05647 11.6211 2.56784 11.1565 2.70877 10.6191C2.8602 10.0556 2.6461 9.38768 2.43736 8.74047C2.22862 8.08813 2.01476 7.40979 2.24423 7.01324C2.47906 6.60625 3.17843 6.45482 3.85683 6.30878C4.51424 6.16783 5.19801 6.01664 5.59992 5.61475C6.00179 5.21288 6.14786 4.52937 6.29395 3.87166C6.44002 3.19326 6.59145 2.49386 6.99841 2.25906C7.39492 2.02935 8.06823 2.24345 8.72564 2.45219C9.37285 2.66093 10.0459 2.87479 10.6043 2.7236C11.1417 2.57753 11.6009 2.07126 12.0498 1.58066C12.5195 1.05881 13.0102 0.521341 13.4954 0.521341C13.9807 0.521341 14.4713 1.0588 14.9409 1.58066C15.3845 2.07129 15.8491 2.58267 16.3865 2.7236C16.9449 2.87503 17.6179 2.66093 18.2651 2.45219C18.9175 2.24345 19.5958 2.02959 19.9924 2.25906C20.3994 2.49389 20.5508 3.19326 20.6968 3.87166C20.8378 4.52907 20.9838 5.21284 21.3909 5.61475C21.7927 6.01662 22.4762 6.16269 23.134 6.30878C23.8124 6.45485 24.5117 6.60628 24.7465 7.01324C24.9763 7.40975 24.7622 8.08306 24.5534 8.74047C24.3447 9.38768 24.1308 10.0607 24.282 10.6191C24.4281 11.1566 24.9344 11.6158 25.4249 12.0647C25.9468 12.5343 26.4843 13.025 26.4843 13.5102C26.4896 13.9957 25.9522 14.481 25.4303 14.9558H25.4303Z" fill="#CF5B50"/>
<path d="M13.4952 5.00391C8.80906 5.00391 4.99414 8.81852 4.99414 13.505C4.99414 18.1909 8.809 22.006 13.4952 22.006C18.1814 22.006 21.9962 18.1914 21.9962 13.505C21.9962 8.81882 18.1814 5.00391 13.4952 5.00391ZM13.4952 21.4943C9.09068 21.4943 5.51062 17.9145 5.51062 13.5097C5.51062 9.10521 9.09038 5.52516 13.4952 5.52516C17.9 5.52516 21.4798 9.11028 21.4798 13.5097C21.4798 17.9089 17.9 21.4943 13.4952 21.4943Z" fill="#CF5B50"/>
<path d="M18.2907 11.7059L15.1335 11.2467L13.7194 8.38705C13.6306 8.20953 13.3436 8.20953 13.2602 8.38705L11.8512 11.2467L8.694 11.7059C8.59475 11.7215 8.51647 11.7893 8.48526 11.8834C8.45404 11.9773 8.48013 12.0765 8.54792 12.1443L10.8336 14.3727L10.2961 17.5142C10.2805 17.6081 10.3171 17.7074 10.4005 17.7647C10.4475 17.7959 10.4997 17.8117 10.5519 17.8117C10.5936 17.8117 10.6353 17.8013 10.6719 17.7805L13.4948 16.3035L16.3179 17.7857C16.4066 17.8327 16.511 17.8222 16.5893 17.7647C16.6675 17.7074 16.7092 17.6081 16.6936 17.5142L16.1562 14.3727L18.4418 12.1443C18.5096 12.0766 18.5357 11.9722 18.5045 11.8834C18.4679 11.7895 18.3896 11.7215 18.2906 11.7059L18.2907 11.7059ZM15.6971 14.0959C15.6344 14.1532 15.6083 14.242 15.6239 14.3256L16.0987 17.0914L13.6148 15.7868C13.5783 15.7658 13.5366 15.7556 13.4949 15.7556C13.4532 15.7556 13.4115 15.766 13.3749 15.7868L10.891 17.0914L11.3658 14.3256C11.3814 14.2422 11.3502 14.1586 11.2926 14.0959L9.2835 12.139L12.0598 11.7371C12.1432 11.7266 12.2163 11.6745 12.2529 11.5962L13.4949 9.08105L14.7368 11.5964C14.7734 11.6747 14.8463 11.7269 14.9299 11.7374L17.7062 12.1392L15.6971 14.0959Z" fill="#CF5B50"/>
</svg>
