<svg width="25" height="39" viewBox="0 0 25 39" fill="none" xmlns="http://www.w3.org/2000/svg">
<path d="M23.3379 35.3581C23.3379 36.3574 22.1806 37.0592 19.6951 37.5676H19.6948C17.1784 38.0267 14.6262 38.2434 12.0706 38.2151C9.51511 38.2434 6.96289 38.0267 4.44633 37.5676C1.96082 37.0592 0.802942 36.3574 0.802942 35.3581C0.802942 34.2895 2.13779 33.7686 3.14213 33.4699L3.14187 33.4696C4.74652 33.0399 6.38696 32.7689 8.04145 32.6606C8.21947 32.6437 8.39671 32.7012 8.53333 32.8199C8.67021 32.9389 8.75515 33.1094 8.76939 33.2932C8.78389 33.4773 8.72613 33.6594 8.60956 33.7994C8.49271 33.9391 8.32682 34.0249 8.14853 34.0377C4.42156 34.3462 2.656 35.0014 2.21477 35.3559C2.47825 35.5615 3.28508 35.9588 5.14448 36.297H5.14422C7.43432 36.6742 9.75083 36.8539 12.0696 36.834C14.3885 36.8539 16.7049 36.6742 18.995 36.297C20.8544 35.9588 21.6618 35.5635 21.9248 35.3559C21.4846 35.0014 19.7177 34.3462 15.991 34.0377C15.8127 34.0249 15.6465 33.9391 15.53 33.7994C15.4134 33.6594 15.3556 33.4773 15.3701 33.2932C15.3844 33.1094 15.4693 32.9389 15.6062 32.8199C15.7428 32.7012 15.92 32.6437 16.0981 32.6606C17.7523 32.7693 19.3931 33.0402 20.9976 33.4696C22.0033 33.7683 23.3379 34.2896 23.3379 35.3581L23.3379 35.3581ZM7.44801 29.7853C3.61814 24.5847 0 19.6724 0 12.4622C0 9.15688 1.27179 5.98691 3.53549 3.64999C5.7992 1.3128 8.86948 0 12.0706 0C15.2716 0 18.3422 1.3128 20.6056 3.64999C22.8693 5.98719 24.1411 9.15716 24.1411 12.4622C24.1411 19.6724 20.5233 24.5842 16.6931 29.7853C15.3279 31.6405 13.9161 33.5554 12.6338 35.6266C12.5109 35.8251 12.2983 35.9452 12.0702 35.9452C11.842 35.9452 11.6295 35.8251 11.5065 35.6266C10.2242 33.5554 8.8124 31.6405 7.44724 29.7856L7.44801 29.7853ZM1.33782 12.4622C1.33782 19.2072 4.82321 23.9394 8.51305 28.9495C9.69862 30.5594 10.9195 32.2163 12.0707 33.9937C13.2222 32.2163 14.4428 30.5596 15.6283 28.9495C19.3186 23.9396 22.8042 19.2074 22.8042 12.4622C22.8042 8.50306 20.7583 4.84484 17.4376 2.86575C14.1167 0.886096 10.0253 0.886096 6.70476 2.86575C3.38391 4.84519 1.33809 8.50334 1.33809 12.4622H1.33782ZM12.0706 19.4229C10.2825 19.4229 8.56754 18.6896 7.30291 17.3842C6.03848 16.0787 5.32798 14.3082 5.32798 12.4619C5.32798 10.6157 6.03828 8.84513 7.30264 7.53972C8.56727 6.23404 10.2822 5.50068 12.0704 5.50068C13.8585 5.50068 15.5734 6.23425 16.8378 7.53972C18.1022 8.84541 18.8125 10.616 18.8125 12.4622C18.8103 14.3077 18.0995 16.0771 16.8357 17.382C15.5715 18.6869 13.858 19.4208 12.0706 19.4229V19.4229ZM12.0706 18.0415C13.5038 18.0415 14.8785 17.4536 15.8921 16.4072C16.9054 15.3607 17.4748 13.9414 17.4748 12.4617C17.4748 10.9819 16.9053 9.56266 15.8918 8.51644C14.8782 7.46994 13.5036 6.88207 12.0704 6.88235C10.6371 6.88235 9.26251 7.47026 8.24919 8.51672C7.23559 9.56322 6.66648 10.9825 6.66648 12.4622C6.66806 13.9414 7.23801 15.3595 8.25135 16.4055C9.2644 17.4514 10.638 18.0399 12.0706 18.0415Z" fill="#50C4CF"/>
</svg>
