<svg width="19" height="25" viewBox="0 0 19 25" fill="none" xmlns="http://www.w3.org/2000/svg">
<rect width="19" height="25" fill="#F5F5F5"/>
<g id="Purchases" clip-path="url(#clip0_0_1)">
<rect width="1440" height="1918" transform="translate(-1308 -779)" fill="white"/>
<g id="Rectangle 198" filter="url(#filter0_d_0_1)">
<path d="M-231.999 -478.2C-231.999 -489.212 -231.999 -494.719 -229.89 -498.94C-227.954 -502.814 -224.813 -505.955 -220.939 -507.891C-216.718 -510 -211.211 -510 -200.199 -510H-176.499C-93.9061 -510 -52.6096 -510 -20.9522 -494.182C8.10481 -479.663 31.6637 -456.104 46.1827 -427.047C62.001 -395.389 62.001 -354.093 62.001 -271.5V32.2C62.001 43.2124 62.001 48.7186 59.8919 52.9396C57.956 56.8138 54.8148 59.955 50.9406 61.8909C46.7196 64 41.2134 64 30.201 64H-200.199C-211.211 64 -216.718 64 -220.939 61.8909C-224.813 59.955 -227.954 56.8138 -229.89 52.9396C-231.999 48.7186 -231.999 43.2124 -231.999 32.2V-478.2Z" fill="white"/>
<path d="M-231.499 -478.2C-231.499 -483.714 -231.499 -487.82 -231.237 -491.077C-230.976 -494.327 -230.457 -496.687 -229.443 -498.716C-227.555 -502.493 -224.493 -505.556 -220.715 -507.444C-218.686 -508.458 -216.326 -508.977 -213.076 -509.238C-209.819 -509.5 -205.713 -509.5 -200.199 -509.5H-176.499C-135.194 -509.5 -104.246 -509.5 -79.6649 -507.524C-55.0898 -505.549 -36.9232 -501.603 -21.1757 -493.734C7.78447 -479.264 31.2648 -455.783 45.7354 -426.823C53.604 -411.076 57.5504 -392.909 59.5253 -368.334C61.5006 -343.753 61.501 -312.805 61.501 -271.5V32.2C61.501 37.7143 61.5006 41.8205 61.239 45.0765C60.9778 48.3268 60.4586 50.6868 59.4446 52.7161C57.5571 56.4935 54.4945 59.5562 50.7171 61.4436C48.6878 62.4576 46.3279 62.9767 43.0775 63.238C39.8214 63.4996 35.7153 63.5 30.201 63.5H-200.199C-205.713 63.5 -209.819 63.4996 -213.076 63.238C-216.326 62.9767 -218.686 62.4576 -220.715 61.4436C-224.493 59.5562 -227.555 56.4935 -229.443 52.7161C-230.457 50.6868 -230.976 48.3268 -231.237 45.0765C-231.499 41.8205 -231.499 37.7143 -231.499 32.2V-478.2Z" stroke="#C4C4C4"/>
</g>
<g id="Group">
<path id="Vector" d="M2.46119 13.3682H11.1854C11.581 13.3682 11.9061 13.0485 11.9061 12.6475C11.9061 12.2519 11.5864 11.9322 11.1908 11.9268H11.1854L2.45572 11.9322L4.28187 10.106C4.56366 9.82425 4.56366 9.36906 4.28187 9.0873C4.00009 8.80555 3.5449 8.80552 3.26314 9.0873L0.212313 12.1381C-0.0694691 12.4199 -0.0694691 12.8751 0.212313 13.1569L3.26314 16.2077C3.54493 16.4895 4.00012 16.4895 4.28187 16.2077C4.56363 15.9259 4.56366 15.4707 4.28187 15.189L2.46119 13.3682Z" fill="#5085CF"/>
<path id="Vector_2" d="M14.1385 0H7.68441C7.20754 0 6.81738 0.390161 6.81738 0.867023C6.81738 1.33847 7.20754 1.72865 7.68441 1.72865H14.1385C15.775 1.72865 17.0973 3.05628 17.1027 4.69278V20.0118C17.1027 21.6483 15.7696 22.976 14.1385 22.976H7.79291C7.31605 22.976 6.92588 23.3661 6.92588 23.843C6.92588 24.3144 7.31605 24.7046 7.79291 24.7046H14.144C16.7288 24.7046 18.8422 22.5967 18.8422 20.0064V4.69828C18.8367 2.10806 16.7288 9.91284e-05 14.1385 9.91284e-05V0Z" fill="#5085CF"/>
</g>
</g>
<defs>
<filter id="filter0_d_0_1" x="-235.999" y="-510" width="302" height="582" filterUnits="userSpaceOnUse" color-interpolation-filters="sRGB">
<feFlood flood-opacity="0" result="BackgroundImageFix"/>
<feColorMatrix in="SourceAlpha" type="matrix" values="0 0 0 0 0 0 0 0 0 0 0 0 0 0 0 0 0 0 127 0" result="hardAlpha"/>
<feOffset dy="4"/>
<feGaussianBlur stdDeviation="2"/>
<feComposite in2="hardAlpha" operator="out"/>
<feColorMatrix type="matrix" values="0 0 0 0 0 0 0 0 0 0 0 0 0 0 0 0 0 0 0.25 0"/>
<feBlend mode="normal" in2="BackgroundImageFix" result="effect1_dropShadow_0_1"/>
<feBlend mode="normal" in="SourceGraphic" in2="effect1_dropShadow_0_1" result="shape"/>
</filter>
<clipPath id="clip0_0_1">
<rect width="1440" height="1918" fill="white" transform="translate(-1308 -779)"/>
</clipPath>
</defs>
</svg>
