<svg width="20" height="20" viewBox="0 0 20 20" fill="none" xmlns="http://www.w3.org/2000/svg">
<path d="M12.5011 18.9582H7.50106C2.97606 18.9582 1.04272 17.0248 1.04272 12.4998V7.49984C1.04272 2.97484 2.97606 1.0415 7.50106 1.0415H9.16772C9.50939 1.0415 9.79272 1.32484 9.79272 1.6665C9.79272 2.00817 9.50939 2.2915 9.16772 2.2915H7.50106C3.65939 2.2915 2.29272 3.65817 2.29272 7.49984V12.4998C2.29272 16.3415 3.65939 17.7082 7.50106 17.7082H12.5011C16.3427 17.7082 17.7094 16.3415 17.7094 12.4998V10.8332C17.7094 10.4915 17.9927 10.2082 18.3344 10.2082C18.6761 10.2082 18.9594 10.4915 18.9594 10.8332V12.4998C18.9594 17.0248 17.0261 18.9582 12.5011 18.9582Z" fill="#5085CF"/>
<path d="M7.08434 14.7415C6.576 14.7415 6.10934 14.5581 5.76767 14.2248C5.35934 13.8165 5.18434 13.2248 5.276 12.5998L5.63434 10.0915C5.701 9.60814 6.01767 8.98314 6.35934 8.64147L12.926 2.0748C14.5843 0.416471 16.2677 0.416471 17.926 2.0748C18.8343 2.98314 19.2427 3.90814 19.1593 4.83314C19.0843 5.58314 18.6843 6.31647 17.926 7.06647L11.3593 13.6331C11.0177 13.9748 10.3927 14.2915 9.90934 14.3581L7.401 14.7165C7.29267 14.7415 7.18434 14.7415 7.08434 14.7415ZM13.8093 2.95814L7.24267 9.52481C7.08434 9.68314 6.901 10.0498 6.86767 10.2665L6.50934 12.7748C6.476 13.0165 6.526 13.2165 6.651 13.3415C6.776 13.4665 6.976 13.5165 7.21767 13.4831L9.726 13.1248C9.94267 13.0915 10.3177 12.9081 10.4677 12.7498L17.0343 6.18314C17.576 5.64147 17.8593 5.15814 17.901 4.70814C17.951 4.16647 17.6677 3.59147 17.0343 2.9498C15.701 1.61647 14.7843 1.99147 13.8093 2.95814Z" fill="#5085CF"/>
<path d="M16.5425 8.19173C16.4842 8.19173 16.4259 8.1834 16.3759 8.16673C14.1842 7.55006 12.4425 5.8084 11.8259 3.61673C11.7342 3.2834 11.9259 2.94173 12.2592 2.84173C12.5925 2.75006 12.9342 2.94173 13.0259 3.27506C13.5259 5.05006 14.9342 6.4584 16.7092 6.9584C17.0425 7.05006 17.2342 7.40006 17.1425 7.7334C17.0675 8.01673 16.8175 8.19173 16.5425 8.19173Z" fill="#5085CF"/>
</svg>
