<svg width="30" height="30" viewBox="0 0 30 30" fill="none" xmlns="http://www.w3.org/2000/svg">
<path d="M0.554765 13.5915H0.688047C1.0216 13.5915 1.28815 13.3584 1.3549 13.0257C1.52168 12.0937 1.82173 11.1618 2.18855 10.2631C2.92215 8.43238 4.02262 6.80163 5.42308 5.40345C6.8236 4.00551 8.4576 2.90713 10.2917 2.17488C11.1921 1.80874 12.1257 1.54242 13.0594 1.34277C13.4262 1.27614 13.6595 0.910003 13.593 0.543888C13.5262 0.177749 13.1594 -0.0551099 12.7926 0.0112863C11.7589 0.210956 10.7252 0.510455 9.75808 0.910021C7.75721 1.7089 5.95666 2.9072 4.45617 4.4381C2.92214 5.96929 1.75522 7.7333 0.92158 9.73024C0.521503 10.6954 0.221201 11.7274 0.0211862 12.7592C-0.0788331 13.1587 0.187963 13.5249 0.554772 13.5915L0.554765 13.5915Z" fill="#50C4CF"/>
<path d="M7.62377 7.6671C6.52336 8.76548 5.68972 10.0304 5.08955 11.4615C4.756 12.2604 4.52271 13.1257 4.38917 13.9911C4.32242 14.3572 4.58921 14.7233 4.95602 14.7565H5.05604C5.38959 14.7565 5.65614 14.5234 5.7229 14.1907C5.85618 13.4253 6.05645 12.693 6.35652 11.9607C6.85661 10.6958 7.62372 9.56422 8.59069 8.59903C9.55759 7.63391 10.6915 6.86819 11.9585 6.36899C12.6922 6.06948 13.4258 5.86982 14.1927 5.73653C14.5595 5.66989 14.8263 5.33719 14.7596 4.97105C14.6928 4.60491 14.3595 4.33859 13.9927 4.40524C13.1257 4.53828 12.2921 4.77138 11.4584 5.10433C9.99142 5.70333 8.72422 6.5689 7.62381 7.66704L7.62377 7.6671Z" fill="#50C4CF"/>
<path d="M8.79088 15.2224C8.75762 15.5886 9.02441 15.9215 9.42451 15.9547H9.49127C9.82482 15.9547 10.1249 15.6884 10.1581 15.3222C10.2581 13.991 10.8585 12.726 11.7921 11.7941C12.7258 10.8622 13.993 10.263 15.3267 10.1632C15.6935 10.13 15.9936 9.79702 15.9603 9.4309C15.9271 9.06476 15.5935 8.76528 15.2267 8.79844C13.5594 8.93148 12.0254 9.66377 10.825 10.8288C9.62453 11.9938 8.92415 13.5916 8.79089 15.2224H8.79088Z" fill="#50C4CF"/>
<path d="M17.6616 17.6853C16.3944 18.9501 15.0274 20.0151 13.9269 20.5809C12.9265 21.1135 12.1264 21.2466 11.8595 20.9803C11.7262 20.8472 11.626 20.714 11.4927 20.5475C11.1592 20.1482 10.8259 19.6822 10.2255 19.4823C9.45863 19.216 8.65827 19.3825 8.12468 19.5155C6.55743 19.8816 4.75682 20.3476 2.95603 21.0799C2.38919 21.313 1.78881 21.579 1.25546 21.9786C0.621832 22.4778 0.221803 23.1102 0.088241 23.7758C-0.111798 24.7409 0.288279 25.8062 1.15542 26.838C1.8558 27.6369 2.68944 28.3357 3.65635 28.8683C4.62326 29.4009 5.65721 29.7336 6.69087 29.9001C7.1577 29.9667 7.59127 29.9999 8.09139 29.9999C10.1922 29.9999 12.5264 29.3343 15.094 27.9696C17.8285 26.5385 20.3294 24.7078 22.5301 22.5776C24.6974 20.3807 26.4983 17.8844 27.9655 15.1552C29.6328 11.9932 30.2664 9.23058 29.8996 6.76754C29.7328 5.70232 29.3995 4.67057 28.8659 3.73861C28.3323 2.77349 27.6655 1.94138 26.8318 1.24229C25.7981 0.343556 24.731 -0.0225713 23.764 0.177075C23.0971 0.310111 22.4303 0.709677 21.9635 1.34214C21.5634 1.87475 21.2966 2.47375 21.0631 3.03958C20.3627 4.83681 19.8626 6.66751 19.4958 8.1987C19.3625 8.73131 19.1623 9.52996 19.4625 10.2957C19.6961 10.8947 20.1294 11.2608 20.5297 11.5605C20.6965 11.6936 20.8298 11.7936 20.9633 11.9267C21.2634 12.2262 21.0966 13.0251 20.5632 13.9902C19.9624 15.0557 18.9285 16.4204 17.6615 17.6853L17.6616 17.6853ZM21.9298 10.8953C21.763 10.7288 21.563 10.5623 21.3962 10.4293C21.0962 10.1962 20.8294 9.99654 20.7626 9.76368C20.6293 9.43074 20.7293 8.9648 20.8294 8.46559C21.1962 6.96786 21.663 5.20379 22.3299 3.47295C22.5634 2.94035 22.7634 2.47436 23.0302 2.10823C23.3303 1.7421 23.6639 1.50924 24.0307 1.40915C24.7311 1.27611 25.4644 1.74208 25.9315 2.17463C27.2987 3.37286 28.2656 5.0703 28.5325 6.90099C28.866 9.09781 28.2657 11.5607 26.7319 14.4565C25.3647 17.0527 23.6309 19.4492 21.5633 21.5461C19.4622 23.6765 17.0948 25.4071 14.46 26.7718C11.559 28.303 9.05809 28.8688 6.89055 28.5691C5.09 28.3028 3.35597 27.3708 2.15546 25.9729C1.72189 25.4737 1.25507 24.7414 1.38857 24.0756C1.45533 23.7094 1.68863 23.3765 2.08895 23.077C2.45576 22.7775 2.88931 22.5778 3.45618 22.3779C5.15675 21.7123 6.95754 21.2463 8.45804 20.8801C8.95813 20.7471 9.42495 20.6805 9.75852 20.8135C9.99206 20.9134 10.1921 21.1465 10.4254 21.446C10.5587 21.6124 10.7254 21.8121 10.8922 21.9786C11.159 22.2449 11.5926 22.5112 12.2927 22.5112C12.3927 22.5112 12.5263 22.5112 12.6263 22.478C13.1931 22.4113 13.8267 22.1785 14.5603 21.8124C15.8275 21.1467 17.2613 20.0151 18.6285 18.6504C19.9957 17.2857 21.1294 15.8546 21.7963 14.5897C22.1631 13.8906 22.3964 13.225 22.4631 12.6592C22.5632 11.7607 22.2296 11.1949 21.9296 10.8952L21.9298 10.8953Z" fill="#50C4CF"/>
</svg>
