<svg width="31" height="30" viewBox="0 0 31 30" fill="none" xmlns="http://www.w3.org/2000/svg">
<path d="M15.1519 15.9746C15.0644 15.9621 14.9519 15.9621 14.8519 15.9746C12.6519 15.8996 10.9019 14.0996 10.9019 11.8871C10.9019 9.62461 12.7269 7.78711 15.0019 7.78711C17.2644 7.78711 19.1019 9.62461 19.1019 11.8871C19.0894 14.0996 17.3519 15.8996 15.1519 15.9746Z" stroke="#292D32" stroke-width="1.5" stroke-linecap="round" stroke-linejoin="round"/>
<path d="M23.4271 24.2242C21.2021 26.2617 18.2521 27.4992 15.0021 27.4992C11.7521 27.4992 8.80215 26.2617 6.57715 24.2242C6.70215 23.0492 7.45215 21.8992 8.78965 20.9992C12.2146 18.7242 17.8146 18.7242 21.2146 20.9992C22.5521 21.8992 23.3021 23.0492 23.4271 24.2242Z" stroke="#292D32" stroke-width="1.5" stroke-linecap="round" stroke-linejoin="round"/>
<path d="M15.002 27.5C21.9055 27.5 27.502 21.9036 27.502 15C27.502 8.09644 21.9055 2.5 15.002 2.5C8.09839 2.5 2.50195 8.09644 2.50195 15C2.50195 21.9036 8.09839 27.5 15.002 27.5Z" stroke="#292D32" stroke-width="1.5" stroke-linecap="round" stroke-linejoin="round"/>
</svg>
