<svg width="17" height="21" viewBox="0 0 17 21" fill="none" xmlns="http://www.w3.org/2000/svg">
<path d="M1.53947 6.84337V16.2367C1.53947 18.5265 3.41814 20.4 5.7143 20.4H10.5154C12.8115 20.4 14.6902 18.5265 14.6902 16.2367V6.84337C15.5773 6.5051 16.2036 5.64643 16.2036 4.63163C16.2036 3.33061 15.1338 2.26378 13.8291 2.26378H11.6373C11.5069 0.988776 10.411 0 9.10635 0H7.09721C5.79258 0 4.72278 0.988776 4.56622 2.26378H2.37443C1.0698 2.26378 0 3.33061 0 4.63163C0.0260927 5.64643 0.652317 6.5051 1.53947 6.84337ZM13.6465 16.2628C13.6465 17.9801 12.2375 19.3852 10.5154 19.3852H5.7143C3.99218 19.3852 2.58318 17.9801 2.58318 16.2628V7.02551H13.6465V16.2628ZM7.09721 1.06684H9.10635C9.83694 1.06684 10.4371 1.58725 10.5675 2.2898H5.60993C5.76649 1.58725 6.36662 1.06684 7.09721 1.06684ZM2.40053 3.33061H13.8291C14.5597 3.33061 15.1599 3.92908 15.1599 4.65765C15.1599 5.38623 14.5597 5.98469 13.8291 5.98469H2.40053C1.66993 5.98469 1.0698 5.38623 1.0698 4.65765C1.0698 3.92908 1.66993 3.33061 2.40053 3.33061Z" fill="#AF221E"/>
<path d="M11.3241 9.2627H10.2804V16.8607H11.3241V9.2627Z" fill="#AF221E"/>
<path d="M8.63648 9.2627H7.59277V16.8607H8.63648V9.2627Z" fill="#AF221E"/>
<path d="M5.94886 9.2627H4.90515V16.8607H5.94886V9.2627Z" fill="#AF221E"/>
</svg>
