<svg width="36" height="21" viewBox="0 0 36 21" fill="none" xmlns="http://www.w3.org/2000/svg">
<path d="M35.3871 0.00177631C35.4808 0.0195988 35.5651 0.0698449 35.6253 0.143646C35.6854 0.217448 35.7174 0.31006 35.7158 0.405136V16.9429C35.7157 17.0499 35.6731 17.1525 35.5973 17.2281C35.5214 17.3037 35.4185 17.3462 35.3113 17.3463H32.8591C32.6572 19.3827 30.9336 20.9765 28.8396 20.9765C26.7456 20.9765 25.022 19.3827 24.8201 17.3463H11.8514C11.843 17.3465 11.8346 17.3465 11.8261 17.3463C11.6242 19.3827 9.90059 20.9765 7.8066 20.9765C5.71262 20.9765 3.98903 19.3827 3.78708 17.3463H1.33492C1.22764 17.3462 1.12477 17.3037 1.04892 17.2281C0.973064 17.1525 0.930447 17.0499 0.930435 16.9429V8.8757C0.930855 8.79976 0.952763 8.72548 0.993633 8.66141L4.63396 2.61101C4.67023 2.55334 4.72054 2.50576 4.78021 2.4727C4.83988 2.43964 4.90698 2.42218 4.97524 2.42194H11.4469V0.405136C11.4469 0.298162 11.4896 0.195572 11.5654 0.11993C11.6413 0.0442874 11.7441 0.00178701 11.8514 0.00177631H35.3113C35.3365 -0.000592104 35.3619 -0.000592104 35.3871 0.00177631ZM34.9068 0.808496H12.2559V16.5395H24.8201C25.022 14.5031 26.7456 12.9093 28.8396 12.9093C30.9336 12.9093 32.6572 14.5031 32.8591 16.5395H34.9068V0.808496ZM11.4469 3.22866H5.19012L3.97668 5.24546H9.42452C9.44975 5.24309 9.47514 5.24309 9.50036 5.24546C9.59403 5.26328 9.67837 5.31353 9.7385 5.38733C9.79863 5.46113 9.83069 5.55374 9.82901 5.64882V8.8757C9.82899 8.98267 9.78638 9.08526 9.71052 9.1609C9.63467 9.23655 9.5318 9.27905 9.42452 9.27906H1.7394V11.2959H3.35732C3.38254 11.2935 3.40793 11.2935 3.43316 11.2959C3.52682 11.3137 3.61116 11.3639 3.6713 11.4377C3.73142 11.5115 3.76348 11.6041 3.7618 11.6992V14.1194C3.76179 14.2264 3.71917 14.3289 3.64331 14.4046C3.56746 14.4802 3.46459 14.5227 3.35732 14.5227H1.7394V16.5395H3.78708C3.98903 14.5031 5.71262 12.9093 7.8066 12.9093C9.40876 12.9093 10.7925 13.8518 11.4469 15.2034V3.22866ZM9.02004 6.05218H3.49636L2.04276 8.47234H9.02004V6.05218ZM2.95284 12.1026H1.7394V13.716H2.95284V12.1026ZM28.8396 13.716C27.0477 13.716 25.6037 15.156 25.6037 16.9429C25.6037 18.7298 27.0477 20.1698 28.8396 20.1698C30.6315 20.1698 32.0754 18.7298 32.0754 16.9429C32.0754 15.156 30.6315 13.716 28.8396 13.716ZM7.8066 13.716C6.01471 13.716 4.57076 15.156 4.57076 16.9429C4.57076 18.7298 6.01471 20.1698 7.8066 20.1698C9.5985 20.1698 11.0424 18.7298 11.0424 16.9429C11.0424 15.156 9.5985 13.716 7.8066 13.716ZM28.8396 15.3295C29.7284 15.3295 30.4575 16.0566 30.4575 16.9429C30.4575 17.8292 29.7284 18.5563 28.8396 18.5563C27.9508 18.5563 27.2217 17.8292 27.2217 16.9429C27.2217 16.0566 27.9508 15.3295 28.8396 15.3295ZM7.8066 15.3295C8.69537 15.3295 9.42452 16.0566 9.42452 16.9429C9.42452 17.8292 8.69537 18.5563 7.8066 18.5563C6.91784 18.5563 6.18868 17.8292 6.18868 16.9429C6.18868 16.0566 6.91784 15.3295 7.8066 15.3295ZM28.8396 16.1362C28.388 16.1362 28.0306 16.4926 28.0306 16.9429C28.0306 17.3932 28.388 17.7496 28.8396 17.7496C29.2912 17.7496 29.6485 17.3932 29.6485 16.9429C29.6485 16.4926 29.2912 16.1362 28.8396 16.1362ZM7.8066 16.1362C7.35503 16.1362 6.99764 16.4926 6.99764 16.9429C6.99764 17.3932 7.35503 17.7496 7.8066 17.7496C8.25817 17.7496 8.61556 17.3932 8.61556 16.9429C8.61556 16.4926 8.25817 16.1362 7.8066 16.1362Z" fill="#5085CF"/>
</svg>
