<svg width="30" height="30" viewBox="0 0 30 30" fill="none" xmlns="http://www.w3.org/2000/svg">
<path d="M3.75 26.2494L5.8125 21.4994C2.54773 16.8649 3.24129 10.5253 7.43088 6.70632C11.6205 2.88735 17.9971 2.78228 22.3102 6.46113C26.6234 10.14 27.5254 16.4533 24.4151 21.1929C21.3048 25.9324 15.1539 27.6173 10.0625 25.1244L3.75 26.2494" stroke="white" stroke-width="2" stroke-linecap="round" stroke-linejoin="round"/>
<path d="M11.25 12.5C11.25 12.8452 11.5298 13.125 11.875 13.125C12.2202 13.125 12.5 12.8452 12.5 12.5V11.25C12.5 10.9048 12.2202 10.625 11.875 10.625C11.5298 10.625 11.25 10.9048 11.25 11.25V12.5C11.25 15.9518 14.0482 18.75 17.5 18.75H18.75C19.0952 18.75 19.375 18.4702 19.375 18.125C19.375 17.7798 19.0952 17.5 18.75 17.5H17.5C17.1548 17.5 16.875 17.7798 16.875 18.125C16.875 18.4702 17.1548 18.75 17.5 18.75" stroke="white" stroke-width="2" stroke-linecap="round" stroke-linejoin="round"/>
</svg>
